<?xml version="1.0" encoding="UTF-8" standalone="no"?>
<svg
   xmlns:dc="http://purl.org/dc/elements/1.1/"
   xmlns:cc="http://creativecommons.org/ns#"
   xmlns:rdf="http://www.w3.org/1999/02/22-rdf-syntax-ns#"
   xmlns:svg="http://www.w3.org/2000/svg"
   xmlns="http://www.w3.org/2000/svg"
   id="svg9865"
   version="1.1"
   viewBox="0 0 210 297"
   height="297mm"
   width="210mm">
  <defs
     id="defs9859" />
  <metadata
     id="metadata9862">
    <rdf:RDF>
      <cc:Work
         rdf:about="">
        <dc:format>image/svg+xml</dc:format>
        <dc:type
           rdf:resource="http://purl.org/dc/dcmitype/StillImage" />
        <dc:title></dc:title>
      </cc:Work>
    </rdf:RDF>
  </metadata>
  <g
     id="layer1">
    <text
       transform="scale(0.67485329,1.4818036)"
       id="text10412"
       y="68.732605"
       x="38.719677"
       style="font-style:normal;font-variant:normal;font-weight:normal;font-stretch:normal;font-size:39.97727585px;line-height:1.25;font-family:'Script MT Bold';-inkscape-font-specification:'Script MT Bold, ';letter-spacing:0px;word-spacing:0px;fill:#000000;fill-opacity:1;stroke:none;stroke-width:0.99943185"
       xml:space="preserve"><tspan
         style="stroke-width:0.99943185"
         y="68.732605"
         x="38.719677"
         id="tspan10410">Ryan Wardle</tspan></text>
    <path
       id="path10414"
       d="M 28.348215,105.74405 Z"
       style="fill:none;stroke:#000000;stroke-width:0.26458332px;stroke-linecap:butt;stroke-linejoin:miter;stroke-opacity:1" />
    <path
       id="path10416"
       d="m 29.115291,103.02156 8.304351,-16.176323 0.442828,-5.165224 -6.89135,-2.371372 4.310366,-17.299126 11.098878,2.748674 -1.023222,14.149548 -3.779761,4.535715 1.511903,12.851191 -0.755951,4.535707 6.803572,-5.669637 3.023809,-15.546815 -1.13393,20.082529 4.913691,-3.401784 2.401493,-17.59326 -4.291375,31.956357 -2.645833,4.53571 -1.889879,-3.40179 9.071427,-12.851184 5.291667,-6.425597 1.198779,-11.339285 5.226818,-3.401785 3.714911,2.195139 -4.09289,-2.573117 -6.849427,6.669938 1.557761,14.118753 0.377978,2.267858 6.047618,-9.071428 1.511904,-6.425597 0.377978,15.497025 5.291667,-6.803571 1.267562,-14.657228 -2.023517,21.460799 2.267858,-15.875001 5.291666,-5.02833 0.377976,11.831903 -1.889879,9.449398 4.535713,-3.779756 9.827381,-18.142857 3.672988,-17.119636 3.50856,8.426184 -3.77976,26.836309 2.64583,4.913686 5.66964,-9.827377 2.64584,-27.59226 -1.51191,34.773809 0.37798,1.511898 7.55952,-9.827374 0.37798,-26.836311 8.69345,13.98512 -4.91369,9.071428 0.75595,12.473214 5.29167,-4.91369 3.314,-15.657521 -1.04614,19.81526 0.75595,1.133924 5.66964,-14.363091 -0.0229,-6.295895 0.77887,8.185774 4.91369,-7.586385 -3.40178,19.303649 4.15774,-0.377976 2.26785,-7.9375 2.64584,-10.205357 5.29166,-1.889882 -7.18154,4.913691 -0.37798,12.095236 1.5119,4.913686 4.9137,-4.535707 4.15773,-33.800378 -2.64583,39.092045 6.04762,-7.181549 5.66964,-20.410715 0.37798,-10.205357 -3.40179,0.755954 -0.75595,35.151784 12.85119,-12.095239 0.75595,-6.047618 -3.02381,-3.401785 -3.40178,9.449403 0.75595,10.961309 3.77976,1.511903 4.15774,-5.669639"
       style="fill:#ff0000;stroke:#000000;stroke-width:5.36499977;stroke-linecap:butt;stroke-linejoin:round;stroke-miterlimit:4;stroke-dasharray:none;stroke-opacity:1" />
  </g>
</svg>
