<?xml version="1.0" encoding="UTF-8" standalone="no"?>
<!-- Created with Inkscape (http://www.inkscape.org/) -->

<svg
   xmlns:dc="http://purl.org/dc/elements/1.1/"
   xmlns:cc="http://creativecommons.org/ns#"
   xmlns:rdf="http://www.w3.org/1999/02/22-rdf-syntax-ns#"
   xmlns:svg="http://www.w3.org/2000/svg"
   xmlns="http://www.w3.org/2000/svg"
   xmlns:sodipodi="http://sodipodi.sourceforge.net/DTD/sodipodi-0.dtd"
   xmlns:inkscape="http://www.inkscape.org/namespaces/inkscape"
   width="210mm"
   height="297mm"
   viewBox="0 0 210 297"
   version="1.1"
   id="svg11571"
   inkscape:version="0.92.3 (2405546, 2018-03-11)"
   sodipodi:docname="Laptop Logo.svg">
  <defs
     id="defs11565" />
  <sodipodi:namedview
     id="base"
     pagecolor="#ffffff"
     bordercolor="#666666"
     borderopacity="1.0"
     inkscape:pageopacity="0.0"
     inkscape:pageshadow="2"
     inkscape:zoom="1"
     inkscape:cx="822.46845"
     inkscape:cy="207.27897"
     inkscape:document-units="mm"
     inkscape:current-layer="layer1"
     showgrid="true"
     showborder="false"
     inkscape:window-width="1920"
     inkscape:window-height="1001"
     inkscape:window-x="-9"
     inkscape:window-y="-9"
     inkscape:window-maximized="1" />
  <metadata
     id="metadata11568">
    <rdf:RDF>
      <cc:Work
         rdf:about="">
        <dc:format>image/svg+xml</dc:format>
        <dc:type
           rdf:resource="http://purl.org/dc/dcmitype/StillImage" />
        <dc:title></dc:title>
      </cc:Work>
    </rdf:RDF>
  </metadata>
  <g
     inkscape:label="Layer 1"
     inkscape:groupmode="layer"
     id="layer1">
    <g
       id="g12153"
       transform="matrix(0.12601385,0,0,0.12601385,276.17637,204.43028)">
      <path
         inkscape:connector-curvature="0"
         id="path12118"
         d="m 216.50635,272 c 0,0 0,0 0,-50 0,-50 0,-100 0,-100 L 0,-3 v 150 z"
         style="fill:#4d4d4d;fill-opacity:0.72929939;stroke:#000000;stroke-width:0.26458332px;stroke-linecap:butt;stroke-linejoin:miter;stroke-opacity:1" />
      <path
         inkscape:connector-curvature="0"
         id="path12120"
         d="M 0,-3 8.660254,-7.9999998 225.1666,117 l -8.66025,5 z"
         style="fill:#ececec;stroke:none;stroke-width:0.26458332px;stroke-linecap:butt;stroke-linejoin:miter;stroke-opacity:1" />
      <path
         inkscape:connector-curvature="0"
         id="path12122"
         d="m 216.50635,122 8.66025,-5 V 267.00001 L 216.50635,272 V 122"
         style="fill:#ababab;fill-opacity:1;stroke:none;stroke-width:0.26458332px;stroke-linecap:butt;stroke-linejoin:miter;stroke-opacity:1" />
      <path
         inkscape:connector-curvature="0"
         id="path12124"
         d="M 8.660254,12 V 142 L 207.84609,257 V 127 L 8.660254,12"
         style="fill:#2a7fff;stroke:#000000;stroke-width:0.26458332px;stroke-linecap:butt;stroke-linejoin:miter;stroke-opacity:1" />
      <path
         inkscape:connector-curvature="0"
         id="path12126"
         d="M 0,147 -129.90381,222 86.60254,347.00001 216.50635,272 Z"
         style="fill:#ececec;fill-opacity:1;stroke:none;stroke-width:0.26458332px;stroke-linecap:butt;stroke-linejoin:miter;stroke-opacity:1" />
      <path
         inkscape:connector-curvature="0"
         id="path12130"
         d="m 86.60254,347.00001 v 9.99998 l 138.56406,-80 v -9.99998 l -138.56406,80"
         style="fill:#ababab;fill-opacity:1;stroke:none;stroke-width:0.26458332px;stroke-linecap:butt;stroke-linejoin:miter;stroke-opacity:1" />
      <path
         inkscape:connector-curvature="0"
         id="path12132"
         d="M 0,157 199.18584,272 129.90381,312 -69.282031,197 0,157 v 0"
         style="fill:#c8c8c8;fill-opacity:1;stroke:none;stroke-width:0.26458332px;stroke-linecap:butt;stroke-linejoin:miter;stroke-opacity:1" />
      <path
         inkscape:connector-curvature="0"
         id="path12134"
         d="m 0,247 -25.980762,15 43.30127,24.99999 L 43.301269,272 Z"
         style="fill:#c8c8c8;fill-opacity:1;stroke:none;stroke-width:0.26458332px;stroke-linecap:butt;stroke-linejoin:miter;stroke-opacity:1" />
      <path
         inkscape:connector-curvature="0"
         id="path12139"
         d="m -129.90381,222 v 10 L 86.60254,356.99999 v -9.99998 z"
         style="fill:#d5d5d5;fill-opacity:1;stroke:#000000;stroke-width:0.26458332px;stroke-linecap:butt;stroke-linejoin:miter;stroke-opacity:1" />
      <path
         inkscape:connector-curvature="0"
         id="path12141"
         d="M 225.1666,117 V 276.99999 L 363.73067,197 Z"
         style="opacity:0.07000002;fill:#000000;stroke:#000000;stroke-width:0.26458332px;stroke-linecap:butt;stroke-linejoin:miter;stroke-opacity:1" />
    </g>
    <text
       xml:space="preserve"
       style="font-style:normal;font-variant:normal;font-weight:normal;font-stretch:normal;font-size:10.58333302px;line-height:1.25;font-family:'Script MT Bold';-inkscape-font-specification:'Script MT Bold, ';letter-spacing:0px;word-spacing:0px;fill:#000000;fill-opacity:1;stroke:none;stroke-width:0.26458332"
       x="245.26875"
       y="172.38126"
       id="text12163"><tspan
         sodipodi:role="line"
         id="tspan12161"
         x="245.26875"
         y="181.48203"
         style="stroke-width:0.26458332" /></text>
    <path
       inkscape:connector-curvature="0"
       id="path12157"
       d="m 68.30765,177.87355 a 32.279167,32.676041 45.341125 0 1 45.93113,-0.007 32.279167,32.676041 45.341125 0 1 -0.55408,45.92778 32.279167,32.676041 45.341125 0 1 -45.93113,0.007 32.279167,32.676041 45.341125 0 1 0.55408,-45.92777 z"
       style="opacity:0.07000002;fill:#000000;fill-opacity:1;stroke:none;stroke-width:5.39788055;stroke-linejoin:round;stroke-miterlimit:4;stroke-dasharray:none;stroke-opacity:1" />
    <g
       id="text12167"
       style="font-style:normal;font-variant:normal;font-weight:normal;font-stretch:normal;font-size:6.3499999px;line-height:1.25;font-family:Arial;-inkscape-font-specification:'Arial, Normal';font-variant-ligatures:normal;font-variant-caps:normal;font-variant-numeric:normal;font-feature-settings:normal;text-align:start;letter-spacing:0px;word-spacing:0px;writing-mode:lr-tb;text-anchor:start;fill:#000000;fill-opacity:1;stroke:none;stroke-width:0.26458332"
       aria-label="Ryan Wardle"
       transform="rotate(-116.86876,286.3809,229.4838)">
      <path
         id="path12189"
         style="font-style:normal;font-variant:normal;font-weight:normal;font-stretch:normal;font-size:6.3499999px;font-family:Arial;-inkscape-font-specification:'Arial, Normal';font-variant-ligatures:normal;font-variant-caps:normal;font-variant-numeric:normal;font-feature-settings:normal;text-align:start;writing-mode:lr-tb;text-anchor:start;stroke-width:0.26458332"
         d="m 320.45506,230.95907 4.5348,0.31109 -0.13793,2.01066 q -0.0416,0.60629 -0.18697,0.91332 -0.14228,0.30724 -0.46456,0.47471 -0.32228,0.16747 -0.69657,0.1418 -0.48256,-0.0331 -0.79211,-0.36824 -0.30955,-0.33513 -0.35448,-0.99397 -0.13079,0.23033 -0.25064,0.34642 -0.25932,0.24638 -0.63736,0.45665 l -1.28835,0.70412 0.0518,-0.75477 0.98463,-0.53538 q 0.42636,-0.23492 0.65456,-0.3902 0.2282,-0.15527 0.32415,-0.28544 0.0957,-0.12707 0.13932,-0.26393 0.0287,-0.1006 0.0446,-0.3326 l 0.0477,-0.69599 -2.01375,-0.13815 z m 2.49226,0.7739 -0.0885,1.28991 q -0.0282,0.41141 0.0394,0.64914 0.0707,0.23794 0.24802,0.37131 0.18042,0.13359 0.40004,0.14865 0.32171,0.0221 0.54509,-0.1988 0.22317,-0.21778 0.25775,-0.72199 l 0.0985,-1.4353 z"
         inkscape:connector-curvature="0" />
      <path
         id="path12191"
         style="font-style:normal;font-variant:normal;font-weight:normal;font-stretch:normal;font-size:6.3499999px;font-family:Arial;-inkscape-font-specification:'Arial, Normal';font-variant-ligatures:normal;font-variant-caps:normal;font-variant-numeric:normal;font-feature-settings:normal;text-align:start;writing-mode:lr-tb;text-anchor:start;stroke-width:0.26458332"
         d="m 318.81532,235.19117 0.52644,0.0358 q -0.0825,0.17063 -0.10772,0.30471 -0.0344,0.18283 0.006,0.30399 0.0403,0.12115 0.13687,0.21185 0.0725,0.0673 0.37684,0.24432 0.0428,0.0238 0.12492,0.0739 l 3.47302,-0.61887 -0.11107,0.59117 -2.0006,0.32134 q -0.38115,0.064 -0.79371,0.0938 0.36011,0.16546 0.69507,0.36406 l 1.75629,1.04612 -0.10305,0.54851 -3.05975,-1.84943 q -0.49605,-0.29827 -0.67656,-0.44576 -0.24373,-0.19722 -0.33317,-0.40962 -0.0925,-0.21298 -0.0433,-0.47505 0.0298,-0.15845 0.13345,-0.34088 z"
         inkscape:connector-curvature="0" />
      <path
         id="path12193"
         style="font-style:normal;font-variant:normal;font-weight:normal;font-stretch:normal;font-size:6.3499999px;font-family:Arial;-inkscape-font-specification:'Arial, Normal';font-variant-ligatures:normal;font-variant-caps:normal;font-variant-numeric:normal;font-feature-settings:normal;text-align:start;writing-mode:lr-tb;text-anchor:start;stroke-width:0.26458332"
         d="m 319.21663,240.741 q -0.16462,-0.37215 -0.18676,-0.67945 -0.023,-0.30433 0.0703,-0.61946 0.15414,-0.52025 0.48962,-0.72483 0.33846,-0.2037 0.73385,-0.0866 0.23188,0.0687 0.39132,0.22912 0.16153,0.16427 0.22727,0.36807 0.0648,0.20678 0.0609,0.43844 -0.005,0.16989 -0.0606,0.49944 -0.11471,0.67098 -0.0984,1.00889 0.10911,0.0356 0.13884,0.0444 0.32702,0.0969 0.50571,-0.0151 0.24212,-0.1514 0.36191,-0.55571 0.11185,-0.37756 0.0318,-0.59853 -0.078,-0.21713 -0.38835,-0.40287 l 0.22637,-0.50208 q 0.31479,0.17087 0.47148,0.39515 0.15965,0.22516 0.17805,0.56693 0.0214,0.34264 -0.0993,0.74993 -0.11978,0.4043 -0.28978,0.62881 -0.17,0.22451 -0.3509,0.30027 -0.17792,0.0766 -0.41201,0.059 -0.14468,-0.0138 -0.50142,-0.11945 l -0.71348,-0.21138 q -0.74619,-0.22107 -0.95506,-0.24738 -0.20678,-0.0225 -0.41807,0.0249 l 0.16558,-0.5589 q 0.19115,-0.0339 0.42116,0.008 z m 1.2083,0.30948 q -0.0326,-0.32658 0.0568,-0.93392 0.0502,-0.34408 0.0313,-0.49844 -0.019,-0.15437 -0.11287,-0.26304 -0.0909,-0.10779 -0.23067,-0.14919 -0.21405,-0.0634 -0.40431,0.0548 -0.19114,0.12123 -0.28362,0.43338 -0.0916,0.30918 -0.0292,0.58962 0.0654,0.28131 0.2668,0.46386 0.1558,0.13994 0.50957,0.24475 z"
         inkscape:connector-curvature="0" />
      <path
         id="path12195"
         style="font-style:normal;font-variant:normal;font-weight:normal;font-stretch:normal;font-size:6.3499999px;font-family:Arial;-inkscape-font-specification:'Arial, Normal';font-variant-ligatures:normal;font-variant-caps:normal;font-variant-numeric:normal;font-feature-settings:normal;text-align:start;writing-mode:lr-tb;text-anchor:start;stroke-width:0.26458332"
         d="m 318.38982,241.94238 3.03784,1.27052 -0.19381,0.4634 -0.43193,-0.18065 q 0.36061,0.54404 0.0962,1.17621 -0.11485,0.27461 -0.31067,0.46157 -0.19416,0.19103 -0.4022,0.23845 -0.20804,0.0474 -0.44744,0.001 -0.15499,-0.0312 -0.51255,-0.18075 l -1.8679,-0.78122 0.21534,-0.51489 1.84788,0.77284 q 0.31465,0.1316 0.49424,0.13613 0.18245,0.006 0.33859,-0.11045 0.1578,-0.11212 0.24394,-0.31808 0.13758,-0.32896 0.0293,-0.65657 -0.10952,-0.32475 -0.69306,-0.56881 l -1.65908,-0.69388 z"
         inkscape:connector-curvature="0" />
      <path
         id="path12197"
         style="font-style:normal;font-variant:normal;font-weight:normal;font-stretch:normal;font-size:6.3499999px;font-family:Arial;-inkscape-font-specification:'Arial, Normal';font-variant-ligatures:normal;font-variant-caps:normal;font-variant-numeric:normal;font-feature-settings:normal;text-align:start;writing-mode:lr-tb;text-anchor:start;stroke-width:0.26458332"
         d="m 315.7258,247.4951 4.44525,1.53484 -0.34423,0.51208 -2.85861,-1.08847 q -0.45084,-0.16856 -0.87922,-0.35939 0.50784,0.55059 0.58318,0.6386 l 2.0649,2.4304 -0.40476,0.60214 -2.2726,-0.74311 q -0.84686,-0.27413 -1.5327,-0.6044 0.30925,0.31249 0.69459,0.73964 l 2.02614,2.22128 -0.3373,0.50179 -3.077,-3.57028 0.32347,-0.48119 3.4088,1.13701 q 0.42771,0.14181 0.52217,0.17915 -0.22012,-0.23389 -0.36822,-0.40817 l -2.33635,-2.73242 z"
         inkscape:connector-curvature="0" />
      <path
         id="path12199"
         style="font-style:normal;font-variant:normal;font-weight:normal;font-stretch:normal;font-size:6.3499999px;font-family:Arial;-inkscape-font-specification:'Arial, Normal';font-variant-ligatures:normal;font-variant-caps:normal;font-variant-numeric:normal;font-feature-settings:normal;text-align:start;writing-mode:lr-tb;text-anchor:start;stroke-width:0.26458332"
         d="m 311.74745,253.34238 q 0.0119,-0.40676 0.12433,-0.6936 0.11039,-0.28454 0.33045,-0.52865 0.36331,-0.40302 0.75421,-0.44303 0.3932,-0.0379 0.6995,0.23817 0.17963,0.16193 0.25436,0.3754 0.075,0.21785 0.0464,0.43009 -0.0306,0.21454 -0.13401,0.42187 -0.0778,0.15112 -0.26999,0.42453 -0.3927,0.55602 -0.52362,0.86797 0.0831,0.0791 0.10616,0.0999 0.25333,0.22837 0.46284,0.20434 0.28373,-0.0323 0.56607,-0.34547 0.26366,-0.29248 0.28666,-0.52638 0.0232,-0.22952 -0.17679,-0.5309 l 0.42065,-0.3555 q 0.21041,0.28987 0.25513,0.55978 0.047,0.27198 -0.0837,0.58831 -0.1284,0.31839 -0.41282,0.6339 -0.28234,0.3132 -0.5325,0.44252 -0.25016,0.12932 -0.44604,0.11971 -0.19359,-0.008 -0.39722,-0.12431 -0.12463,-0.0748 -0.40098,-0.3239 l -0.55271,-0.49825 q -0.57805,-0.52109 -0.75518,-0.63485 -0.17691,-0.10938 -0.38798,-0.15772 l 0.3903,-0.43296 q 0.18709,0.0518 0.37642,0.18906 z m 0.95694,0.80002 q 0.11133,-0.30873 0.45375,-0.81824 0.1936,-0.28884 0.24304,-0.4363 0.0494,-0.14746 0.0115,-0.286 -0.0356,-0.13646 -0.14385,-0.23404 -0.16581,-0.14947 -0.38846,-0.12476 -0.22473,0.027 -0.44271,0.26882 -0.21591,0.23951 -0.28044,0.51947 -0.0622,0.28204 0.0408,0.53356 0.0803,0.19343 0.35433,0.44048 z"
         inkscape:connector-curvature="0" />
      <path
         id="path12201"
         style="font-style:normal;font-variant:normal;font-weight:normal;font-stretch:normal;font-size:6.3499999px;font-family:Arial;-inkscape-font-specification:'Arial, Normal';font-variant-ligatures:normal;font-variant-caps:normal;font-variant-numeric:normal;font-feature-settings:normal;text-align:start;writing-mode:lr-tb;text-anchor:start;stroke-width:0.26458332"
         d="m 310.47348,254.05018 2.2461,2.40784 -0.3673,0.34263 -0.34051,-0.36503 q 0.0984,0.38733 0.0567,0.57893 -0.044,0.19371 -0.18686,0.32696 -0.20632,0.19246 -0.54211,0.25977 l -0.21263,-0.50977 q 0.23212,-0.0512 0.38176,-0.19075 0.13377,-0.12478 0.16419,-0.30581 0.0325,-0.17876 -0.0554,-0.36389 -0.13502,-0.28111 -0.37613,-0.53958 l -1.17592,-1.2606 z"
         inkscape:connector-curvature="0" />
      <path
         id="path12203"
         style="font-style:normal;font-variant:normal;font-weight:normal;font-stretch:normal;font-size:6.3499999px;font-family:Arial;-inkscape-font-specification:'Arial, Normal';font-variant-ligatures:normal;font-variant-caps:normal;font-variant-numeric:normal;font-feature-settings:normal;text-align:start;writing-mode:lr-tb;text-anchor:start;stroke-width:0.26458332"
         d="m 307.23047,256.81419 0.25597,0.32727 q -0.0552,-0.57881 0.42353,-0.95322 0.31017,-0.2426 0.70521,-0.27604 0.39259,-0.0315 0.77547,0.16105 0.38234,0.19693 0.69371,0.59502 0.30373,0.38832 0.42071,0.80461 0.11889,0.41874 -0.008,0.78974 -0.12708,0.371 -0.44701,0.62124 -0.23446,0.18339 -0.49595,0.22652 -0.25958,0.0456 -0.49853,-0.0234 l 1.00479,1.28463 -0.43717,0.34193 -2.80041,-3.58035 z m 2.40207,0.20748 q -0.38969,-0.49823 -0.79266,-0.58061 -0.40296,-0.0824 -0.68871,0.14111 -0.28819,0.22541 -0.30507,0.6165 -0.0174,0.39545 0.36082,0.87902 0.41643,0.53241 0.81642,0.62106 0.4,0.0886 0.70039,-0.14631 0.29307,-0.22923 0.30369,-0.6233 0.008,-0.39216 -0.39488,-0.90747 z"
         inkscape:connector-curvature="0" />
      <path
         id="path12205"
         style="font-style:normal;font-variant:normal;font-weight:normal;font-stretch:normal;font-size:6.3499999px;font-family:Arial;-inkscape-font-specification:'Arial, Normal';font-variant-ligatures:normal;font-variant-caps:normal;font-variant-numeric:normal;font-feature-settings:normal;text-align:start;writing-mode:lr-tb;text-anchor:start;stroke-width:0.26458332"
         d="m 306.09601,257.61093 2.51904,3.7836 -0.46456,0.3093 -2.51904,-3.7836 z"
         inkscape:connector-curvature="0" />
      <path
         id="path12207"
         style="font-style:normal;font-variant:normal;font-weight:normal;font-stretch:normal;font-size:6.3499999px;font-family:Arial;-inkscape-font-specification:'Arial, Normal';font-variant-ligatures:normal;font-variant-caps:normal;font-variant-numeric:normal;font-feature-settings:normal;text-align:start;writing-mode:lr-tb;text-anchor:start;stroke-width:0.26458332"
         d="m 303.4637,260.43606 -0.53802,0.21957 q -0.12792,-0.50762 0.0577,-0.93138 0.18557,-0.42375 0.68605,-0.70403 0.63032,-0.353 1.21758,-0.1737 0.58608,0.18351 0.97847,0.88417 0.40602,0.72501 0.25691,1.33446 -0.1491,0.60945 -0.74425,0.94275 -0.57622,0.32269 -1.16111,0.13496 -0.58488,-0.18774 -0.98333,-0.89922 -0.0242,-0.0433 -0.07,-0.13136 l 2.14255,-1.19989 q -0.29217,-0.45827 -0.67384,-0.57502 -0.38166,-0.11676 -0.74146,0.0847 -0.26782,0.14999 -0.37841,0.39671 -0.11058,0.24672 -0.0488,0.61724 z m 2.03967,-0.10814 -1.60421,0.8984 q 0.23547,0.34432 0.48847,0.44073 0.39021,0.15106 0.76083,-0.0565 0.33546,-0.18786 0.43966,-0.54117 0.10149,-0.3518 -0.0847,-0.74146 z"
         inkscape:connector-curvature="0" />
    </g>
    <text
       id="text12226"
       y="258.20694"
       x="266.02783"
       style="font-style:normal;font-variant:normal;font-weight:normal;font-stretch:normal;font-size:6.3499999px;line-height:1.25;font-family:Arial;-inkscape-font-specification:'Arial, Normal';font-variant-ligatures:normal;font-variant-caps:normal;font-variant-numeric:normal;font-feature-settings:normal;text-align:start;letter-spacing:0px;word-spacing:0px;writing-mode:lr-tb;text-anchor:start;fill:#000000;fill-opacity:1;stroke:none;stroke-width:0.26458332"
       xml:space="preserve"><tspan
         style="font-style:normal;font-variant:normal;font-weight:normal;font-stretch:normal;font-size:6.3499999px;font-family:Arial;-inkscape-font-specification:'Arial, Normal';font-variant-ligatures:normal;font-variant-caps:normal;font-variant-numeric:normal;font-feature-settings:normal;text-align:start;writing-mode:lr-tb;text-anchor:start;stroke-width:0.26458332"
         y="258.20694"
         x="266.02783"
         id="tspan12224"
         sodipodi:role="line">Web Developer</tspan></text>
  </g>
</svg>
