<?xml version="1.0" encoding="UTF-8" standalone="no"?>
<!-- Created with Inkscape (http://www.inkscape.org/) -->

<svg
   xmlns:dc="http://purl.org/dc/elements/1.1/"
   xmlns:cc="http://creativecommons.org/ns#"
   xmlns:rdf="http://www.w3.org/1999/02/22-rdf-syntax-ns#"
   xmlns:svg="http://www.w3.org/2000/svg"
   xmlns="http://www.w3.org/2000/svg"
   xmlns:sodipodi="http://sodipodi.sourceforge.net/DTD/sodipodi-0.dtd"
   xmlns:inkscape="http://www.inkscape.org/namespaces/inkscape"
   width="210mm"
   height="297mm"
   viewBox="0 0 210 297"
   version="1.1"
   id="svg8"
   inkscape:version="0.92.3 (2405546, 2018-03-11)"
   sodipodi:docname="name.svg">
  <defs
     id="defs2" />
  <sodipodi:namedview
     id="base"
     pagecolor="#ffffff"
     bordercolor="#666666"
     borderopacity="1.0"
     inkscape:pageopacity="0.0"
     inkscape:pageshadow="2"
     inkscape:zoom="1"
     inkscape:cx="-167.82168"
     inkscape:cy="560"
     inkscape:document-units="mm"
     inkscape:current-layer="layer1"
     showgrid="false"
     showguides="true"
     inkscape:guide-bbox="true"
     inkscape:window-width="1920"
     inkscape:window-height="1001"
     inkscape:window-x="-9"
     inkscape:window-y="-9"
     inkscape:window-maximized="1">
    <sodipodi:guide
       position="-34.017856,311.45239"
       orientation="0,1"
       id="guide819"
       inkscape:locked="false" />
  </sodipodi:namedview>
  <metadata
     id="metadata5">
    <rdf:RDF>
      <cc:Work
         rdf:about="">
        <dc:format>image/svg+xml</dc:format>
        <dc:type
           rdf:resource="http://purl.org/dc/dcmitype/StillImage" />
        <dc:title></dc:title>
      </cc:Work>
    </rdf:RDF>
  </metadata>
  <g
     inkscape:label="Layer 1"
     inkscape:groupmode="layer"
     id="layer1">
    <text
       xml:space="preserve"
       style="font-style:normal;font-variant:normal;font-weight:normal;font-stretch:normal;font-size:10.58333302px;line-height:1.25;font-family:'Script MT Bold';-inkscape-font-specification:'Script MT Bold, ';letter-spacing:0px;word-spacing:0px;fill:#000000;fill-opacity:1;stroke:none;stroke-width:0.26458332"
       x="74.839287"
       y="145.05356"
       id="text823"><tspan
         sodipodi:role="line"
         id="tspan821"
         x="74.839287"
         y="154.15433"
         style="stroke-width:0.26458332" /></text>
    <flowRoot
       xml:space="preserve"
       id="flowRoot825"
       style="fill:black;fill-opacity:1;stroke:none;font-family:'Script MT Bold';font-style:normal;font-weight:normal;font-size:40px;line-height:1.25;letter-spacing:0px;word-spacing:0px;-inkscape-font-specification:'Script MT Bold, ';font-stretch:normal;font-variant:normal"><flowRegion
         id="flowRegion827"><rect
           id="rect829"
           width="371.42856"
           height="114.28571"
           x="137.14285"
           y="293.94824" /></flowRegion><flowPara
         id="flowPara831"></flowPara></flowRoot>    <flowRoot
       xml:space="preserve"
       id="flowRoot833"
       style="fill:black;fill-opacity:1;stroke:none;font-family:'Script MT Bold';font-style:normal;font-weight:normal;font-size:40px;line-height:1.25;letter-spacing:0px;word-spacing:0px;-inkscape-font-specification:'Script MT Bold, ';font-stretch:normal;font-variant:normal"><flowRegion
         id="flowRegion835"><rect
           id="rect837"
           width="574.28571"
           height="242.85715"
           x="114.28571"
           y="262.51968" /></flowRegion><flowPara
         id="flowPara839"></flowPara></flowRoot>    <g
       aria-label="RYAN WARDLE"
       style="font-style:normal;font-variant:normal;font-weight:normal;font-stretch:normal;font-size:14.11111069px;line-height:1.25;font-family:BoardMarker;-inkscape-font-specification:'BoardMarker, Normal';font-variant-ligatures:normal;font-variant-caps:normal;font-variant-numeric:normal;font-feature-settings:normal;text-align:start;letter-spacing:0px;word-spacing:0px;writing-mode:lr-tb;text-anchor:start;fill:#000000;fill-opacity:1;stroke:none;stroke-width:0.26458332"
       id="text864"
       transform="translate(199.49583,13.229167)">
      <path
         d="m -169.72883,125.06907 q 1.68809,0.3514 1.68809,1.6881 0,1.66053 -2.81809,4.02387 v 0.24115 q 0.81305,0.3514 3.30041,2.96968 v 0.16536 q 0,0.87506 -1.85347,1.28158 h -0.0758 q -0.27561,0 -1.6123,-1.52273 -0.10336,0 -0.96463,-0.72348 h -0.0758 v 0.48232 q 0,1.45383 -1.12999,1.76389 0,0.17914 -0.72347,0.24115 h -0.31695 l -0.24116,-0.15847 q 0.15848,-1.39871 0.15848,-6.51123 -0.24116,-0.0551 -0.32384,-0.32384 0.29628,-1.52273 1.20578,-2.08773 1.99127,-1.52962 3.78272,-1.52962 z m -2.2531,1.92925 v 3.05925 h 0.0827 q 1.52273,-1.25402 1.52273,-2.49425 -0.31006,-0.80615 -0.96463,-0.80615 -0.59256,0 -0.64079,0.24115 z"
         style="font-style:normal;font-variant:normal;font-weight:normal;font-stretch:normal;font-size:14.11111069px;font-family:BoardMarker;-inkscape-font-specification:'BoardMarker, Normal';font-variant-ligatures:normal;font-variant-caps:normal;font-variant-numeric:normal;font-feature-settings:normal;text-align:start;writing-mode:lr-tb;text-anchor:start;stroke-width:0.26458332"
         id="path866"
         inkscape:connector-curvature="0" />
      <path
         d="m -159.90342,125.31023 q 0.48231,0 0.48231,0.56499 -0.61323,2.23242 -2.57004,3.70003 -0.96463,0.50988 -0.96463,1.04042 -0.0827,0.57878 -0.0827,1.44694 v 2.89388 q 0,0.99219 -2.01193,1.52963 -0.22049,-0.0276 -0.39964,-0.32384 0.0827,-4.38216 0.24116,-5.46392 -0.93707,-0.33762 -1.44694,-1.28847 -0.56499,-1.14377 -0.56499,-1.84657 v -0.24116 q 0,-0.93706 2.01193,-1.44694 0.39963,0.11025 0.39963,0.565 l -0.0758,0.31695 q 0.66146,2.25309 1.52273,2.25309 h 0.16537 q 0.71658,-0.58567 1.36425,-1.77078 -0.15847,-0.26183 -0.15847,-0.48231 v -0.0758 q 1.15755,-1.37114 2.08773,-1.37114 z"
         style="font-style:normal;font-variant:normal;font-weight:normal;font-stretch:normal;font-size:14.11111069px;font-family:BoardMarker;-inkscape-font-specification:'BoardMarker, Normal';font-variant-ligatures:normal;font-variant-caps:normal;font-variant-numeric:normal;font-feature-settings:normal;text-align:start;writing-mode:lr-tb;text-anchor:start;stroke-width:0.26458332"
         id="path868"
         inkscape:connector-curvature="0" />
      <path
         d="m -156.44455,125.63407 q 0.65457,0 1.1231,2.7354 l 1.12311,3.69314 h 0.0827 q 1.00597,-0.24115 1.20578,-0.24115 0.32384,0.12402 0.32384,0.24115 v 0.24116 q -0.50987,0.73036 -1.28847,1.04731 0.24116,0.75792 0.24116,0.88194 -0.72347,1.37115 -1.84657,1.37115 h -0.40652 q -0.19982,0 -0.24116,-0.32384 l 0.0827,-0.32384 q -0.15847,-0.38585 -0.32383,-1.04041 -2.52181,0.15847 -3.05236,0.15847 -0.86127,1.44694 -1.92925,1.44694 h -0.39963 q -0.18604,0 -0.24116,-0.39963 0,-0.26872 0.48231,-0.88884 v -0.0758 q 0,-0.12402 -0.88883,-0.32384 v -0.15847 q 0,-0.68902 1.6123,-1.37115 1.99816,-6.18739 3.05236,-6.18739 0.64079,-0.48231 1.28846,-0.48231 z m -1.28846,3.77582 q -1.04731,2.69406 -1.04731,3.05924 1.46072,-0.0827 1.92925,-0.0827 v -0.0827 q -0.72347,-2.89388 -0.88194,-2.89388 z"
         style="font-style:normal;font-variant:normal;font-weight:normal;font-stretch:normal;font-size:14.11111069px;font-family:BoardMarker;-inkscape-font-specification:'BoardMarker, Normal';font-variant-ligatures:normal;font-variant-caps:normal;font-variant-numeric:normal;font-feature-settings:normal;text-align:start;writing-mode:lr-tb;text-anchor:start;stroke-width:0.26458332"
         id="path870"
         inkscape:connector-curvature="0" />
      <path
         d="m -144.5383,124.26292 0.16537,0.24115 q 0,1.37115 0.24115,6.51812 0,2.50114 -1.68809,3.21083 -0.81305,0.16537 -0.96463,0.16537 -0.86816,0 -3.05924,-3.3004 v 3.3004 q 0,0.8406 -1.76389,1.28157 h -0.32384 q -0.0827,0 -0.32384,-0.31694 0,-0.24805 0.0827,-0.565 -0.0827,-3.25217 -0.0827,-5.22277 v -0.0827 q 0,-1.83279 0.64768,-2.32888 1.02663,-0.64768 1.68809,-0.64768 0.51677,0 2.24621,3.05924 0.96462,1.38493 0.96462,1.52274 h 0.16537 q -0.16537,-4.2168 -0.16537,-5.38813 0.68213,-1.44694 2.17041,-1.44694 z"
         style="font-style:normal;font-variant:normal;font-weight:normal;font-stretch:normal;font-size:14.11111069px;font-family:BoardMarker;-inkscape-font-specification:'BoardMarker, Normal';font-variant-ligatures:normal;font-variant-caps:normal;font-variant-numeric:normal;font-feature-settings:normal;text-align:start;writing-mode:lr-tb;text-anchor:start;stroke-width:0.26458332"
         id="path872"
         inkscape:connector-curvature="0" />
      <path
         d="m -129.19384,124.66944 q 0.31695,0.0758 0.31695,0.39963 0,6.57324 -1.52273,8.12353 -1.17823,0.79927 -1.77078,0.79927 h -0.32384 q -0.86128,0 -1.76389,-2.00505 -0.13781,0 -0.48232,1.20578 -1.15066,1.20579 -2.01193,1.20579 h -0.39963 q -0.77859,0 -1.12999,-5.78776 v -1.12999 q 0,-0.88195 1.85346,-1.36426 h 0.0758 q 0.29628,0 0.48231,0.24116 -0.0758,0.57188 -0.0758,0.64078 0,0.66146 0.15848,2.57693 h 0.0827 q 1.17822,-1.12999 2.00504,-1.12999 h 0.0827 q 0.64078,0 1.60541,2.33578 0.32384,0.5581 0.40652,0.5581 0.15848,-1.24712 0.48232,-5.62928 0.99907,-1.04042 1.92925,-1.04042 z"
         style="font-style:normal;font-variant:normal;font-weight:normal;font-stretch:normal;font-size:14.11111069px;font-family:BoardMarker;-inkscape-font-specification:'BoardMarker, Normal';font-variant-ligatures:normal;font-variant-caps:normal;font-variant-numeric:normal;font-feature-settings:normal;text-align:start;writing-mode:lr-tb;text-anchor:start;stroke-width:0.26458332"
         id="path874"
         inkscape:connector-curvature="0" />
      <path
         d="m -123.8126,125.63407 q 0.65456,0 1.1231,2.7354 l 1.1231,3.69314 h 0.0827 q 1.00597,-0.24115 1.20578,-0.24115 0.32384,0.12402 0.32384,0.24115 v 0.24116 q -0.50987,0.73036 -1.28846,1.04731 0.24115,0.75792 0.24115,0.88194 -0.72347,1.37115 -1.84657,1.37115 h -0.40652 q -0.19981,0 -0.24116,-0.32384 l 0.0827,-0.32384 q -0.15848,-0.38585 -0.32384,-1.04041 -2.52181,0.15847 -3.05236,0.15847 -0.86127,1.44694 -1.92925,1.44694 h -0.39963 q -0.18604,0 -0.24116,-0.39963 0,-0.26872 0.48231,-0.88884 v -0.0758 q 0,-0.12402 -0.88883,-0.32384 v -0.15847 q 0,-0.68902 1.6123,-1.37115 1.99816,-6.18739 3.05236,-6.18739 0.64079,-0.48231 1.28847,-0.48231 z m -1.28847,3.77582 q -1.04731,2.69406 -1.04731,3.05924 1.46072,-0.0827 1.92925,-0.0827 v -0.0827 q -0.72347,-2.89388 -0.88194,-2.89388 z"
         style="font-style:normal;font-variant:normal;font-weight:normal;font-stretch:normal;font-size:14.11111069px;font-family:BoardMarker;-inkscape-font-specification:'BoardMarker, Normal';font-variant-ligatures:normal;font-variant-caps:normal;font-variant-numeric:normal;font-feature-settings:normal;text-align:start;writing-mode:lr-tb;text-anchor:start;stroke-width:0.26458332"
         id="path876"
         inkscape:connector-curvature="0" />
      <path
         d="m -114.63487,125.06907 q 1.6881,0.3514 1.6881,1.6881 0,1.66053 -2.81809,4.02387 v 0.24115 q 0.81304,0.3514 3.3004,2.96968 v 0.16536 q 0,0.87506 -1.85346,1.28158 h -0.0758 q -0.27561,0 -1.61231,-1.52273 -0.10335,0 -0.96463,-0.72348 h -0.0758 v 0.48232 q 0,1.45383 -1.12999,1.76389 0,0.17914 -0.72347,0.24115 h -0.31695 l -0.24115,-0.15847 q 0.15847,-1.39871 0.15847,-6.51123 -0.24116,-0.0551 -0.32384,-0.32384 0.29628,-1.52273 1.20578,-2.08773 1.99127,-1.52962 3.78272,-1.52962 z m -2.25309,1.92925 v 3.05925 h 0.0827 q 1.52273,-1.25402 1.52273,-2.49425 -0.31006,-0.80615 -0.96463,-0.80615 -0.59255,0 -0.64078,0.24115 z"
         style="font-style:normal;font-variant:normal;font-weight:normal;font-stretch:normal;font-size:14.11111069px;font-family:BoardMarker;-inkscape-font-specification:'BoardMarker, Normal';font-variant-ligatures:normal;font-variant-caps:normal;font-variant-numeric:normal;font-feature-settings:normal;text-align:start;writing-mode:lr-tb;text-anchor:start;stroke-width:0.26458332"
         id="path878"
         inkscape:connector-curvature="0" />
      <path
         d="m -109.39143,126.27485 h 0.0827 q 1.79834,0 4.25814,1.61231 1.0473,0.90261 1.0473,2.00504 v 0.16537 q 0,2.00504 -3.94118,4.09966 -0.96463,0.48232 -2.2531,0.88195 -0.53743,0.48231 -1.1231,0.48231 h -0.32384 l -0.24115,-0.15847 0.0827,-0.565 q -0.32384,-4.25814 -0.32384,-6.59391 0,-1.04731 2.09462,-1.84657 0.31006,-0.0827 0.64079,-0.0827 z m -0.39964,1.85346 q 0.2136,5.30545 0.48232,5.30545 2.96967,-0.94395 2.96967,-2.49425 v -0.0827 q 0,-1.65365 -3.37619,-2.72852 z"
         style="font-style:normal;font-variant:normal;font-weight:normal;font-stretch:normal;font-size:14.11111069px;font-family:BoardMarker;-inkscape-font-specification:'BoardMarker, Normal';font-variant-ligatures:normal;font-variant-caps:normal;font-variant-numeric:normal;font-feature-settings:normal;text-align:start;writing-mode:lr-tb;text-anchor:start;stroke-width:0.26458332"
         id="path880"
         inkscape:connector-curvature="0" />
      <path
         d="m -100.8476,125.79254 h 0.15847 q 0.11714,0 0.24116,0.32384 -0.88194,4.94027 -0.88194,6.18739 0,1.52962 0.88194,1.52962 h 0.0827 q 0.33762,0 2.969674,-0.48231 0.323839,0.12402 0.323839,0.24116 v 0.0827 q 0,1.32981 -4.664663,1.76389 h -0.48231 q -1.44694,0 -1.44694,-2.24621 0.64768,-6.75238 1.37115,-6.75238 0.75792,-0.64768 1.44694,-0.64768 z"
         style="font-style:normal;font-variant:normal;font-weight:normal;font-stretch:normal;font-size:14.11111069px;font-family:BoardMarker;-inkscape-font-specification:'BoardMarker, Normal';font-variant-ligatures:normal;font-variant-caps:normal;font-variant-numeric:normal;font-feature-settings:normal;text-align:start;writing-mode:lr-tb;text-anchor:start;stroke-width:0.26458332"
         id="path882"
         inkscape:connector-curvature="0" />
      <path
         d="m -93.344183,126.0337 q 2.583821,0.48231 3.782714,0.56499 v 0.39963 q -0.73725,1.12999 -2.335774,1.12999 -0.799262,0 -2.17041,-0.32383 -0.158475,0.35829 -0.158475,1.0473 v 1.6881 q 1.81212,0 3.700033,-0.24116 0.316949,0.11714 0.316949,0.24116 v 0.24116 q -0.668349,1.28157 -3.376194,1.28157 -0.241157,0 -0.558105,0.16537 0.213595,2.2462 1.123101,2.2462 h 0.564995 q 0.544325,0 1.763889,-0.31695 0.268718,0.0758 0.323839,0.31695 -0.778591,1.6881 -4.016981,1.6881 -1.770779,0 -2.011936,-2.2462 -0.158474,-2.09462 -0.323839,-2.09462 v -0.0758 q 0,-0.35139 0.165365,-0.64767 l -0.08268,-0.39963 q 0,-3.83095 2.328884,-4.42351 0.34451,-0.15847 0.964627,-0.24115 z"
         style="font-style:normal;font-variant:normal;font-weight:normal;font-stretch:normal;font-size:14.11111069px;font-family:BoardMarker;-inkscape-font-specification:'BoardMarker, Normal';font-variant-ligatures:normal;font-variant-caps:normal;font-variant-numeric:normal;font-feature-settings:normal;text-align:start;writing-mode:lr-tb;text-anchor:start;stroke-width:0.26458332"
         id="path884"
         inkscape:connector-curvature="0" />
    </g>
  </g>
</svg>
